:SAMPLES-PER-SECOND 24
:FULLY-SPECIFIED
:DEGREES
38
root  1.25771 42.3904 44.0184 -21.106 42.8599 -27.1274
RightUpLeg  -40.4454 -16.6432 0.408866
RightLeg  66.9409 -3.94065 -10.7775
RightFoot  3.8334 -0.941123 7.25307
RightToes  -2.08645e-008 3.77894e-005 6.81332e-007
Spine  9.03217 0.088833 5.10264
Spine1  2.6804 0.474656 -0.349661
HEad  -30.8219 -20.8639 13.1059
LeftShoulder1  6.62532 -12.6187 -35.0712
LeftArm  4.31519 34.3339 -25.1956
LeftForeArm  130.072 -79.2247 -118.121
LeftHand  -0.24265 -3.34274 3.47351
RightShoulder  4.0785 6.81047 33.6551
RightArm  4.556 -8.71965 25.5398
RightForeArm  29.9166 58.1238 15.4977
RightHand  -0.583648 6.77705 -5.90355
LeftUpLeg  -6.34913 9.71619 5.90504
LeftLeg  11.0139 -3.43734 -1.9112
LeftFoot  15.791 0.606241 -2.91631
LeftToes  1.24767e-006 1.47042e-008 1.32732e-009
39
root  1.54709 42.5654 42.9631 -16.009 38.7889 -22.1497
RightUpLeg  -39.0674 -15.4008 0.341904
RightLeg  54.0228 -4.36175 -6.94615
RightFoot  2.59501 -0.79003 6.60731
RightToes  -2.08645e-008 3.77894e-005 6.81332e-007
Spine  9.05376 0.338586 6.85012
Spine1  2.37331 1.01521 -1.32941
HEad  -31.7723 -17.5592 11.9932
LeftShoulder1  6.90383 -12.9767 -35.8521
LeftArm  3.32016 35.8176 -27.5953
LeftForeArm  140.435 -76.9719 -132.41
LeftHand  -0.197567 -3.278 2.88989
RightShoulder  4.26835 7.02287 34.6526
RightArm  9.24912 -6.08716 26.9531
RightForeArm  33.1932 63.5577 19.6598
RightHand  -0.393436 7.0899 -4.00716
LeftUpLeg  -8.35914 1.05965 5.05472
LeftLeg  14.7999 -3.02367 -0.440682
LeftFoot  16.58 0.965286 -4.27267
LeftToes  1.24767e-006 1.47042e-008 1.32732e-009
40
root  1.78954 42.0953 41.9081 -12.1816 34.8939 -18.4912
RightUpLeg  -37.405 -14.6218 0.422452
RightLeg  41.572 -1.04528 -1.33406
RightFoot  0.833003 -0.996944 9.42112
RightToes  -2.08645e-008 3.77894e-005 6.81332e-007
Spine  9.66578 0.789049 7.83718
Spine1  1.9947 1.70401 -1.87908
HEad  -33.1193 -15.0147 11.4443
LeftShoulder1  6.88407 -13.0466 -35.5593
LeftArm  3.35497 34.2089 -31.6019
LeftForeArm  145.727 -75.4279 -138.688
LeftHand  -0.269217 -3.17361 3.89256
RightShoulder  4.2661 7.04615 34.5412
RightArm  11.945 -5.24136 27.9036
RightForeArm  44.6031 71.2514 29.3311
RightHand  -0.220378 7.12545 -2.39654
LeftUpLeg  -11.6572 -12.1539 6.34572
LeftLeg  24.3364 2.30683 1.42468
LeftFoot  12.6902 -0.151657 0.415164
LeftToes  1.24767e-006 1.47042e-008 1.32732e-009
41
root  2.05936 41.0828 41.1242 -8.50211 29.2852 -14.0507
RightUpLeg  -35.7852 -13.3078 0.515265
RightLeg  32.3432 1.12045 0.518602
RightFoot  -1.88733 -1.07785 12.8735
RightToes  -2.08645e-008 3.77894e-005 6.81332e-007
Spine  10.4227 2.25617 6.49347
Spine1  0.970055 3.3253 -2.20356
HEad  -33.7497 -12.6767 11.1715
LeftShoulder1  6.59053 -12.7529 -34.5251
LeftArm  4.65934 31.0796 -34.9379
LeftForeArm  150.424 -74.1551 -142.895
LeftHand  -0.242209 -2.95794 3.59698
RightShoulder  4.27257 7.07593 34.4894
RightArm  13.6489 -5.57035 28.2178
RightForeArm  68.5703 78.3388 54.0896
RightHand  -0.0932428 7.05945 -1.22738
LeftUpLeg  -11.5125 -14.1272 6.98976
LeftLeg  29.3141 -2.59179 -1.25711
LeftFoot  2.41863 -0.0436122 0.0325245
LeftToes  1.24767e-006 1.47042e-008 1.32732e-009
42
root  2.30805 39.7696 40.4967 -4.60791 24.6014 -9.30644
RightUpLeg  -35.4776 -13.8436 -0.0171048
RightLeg  28.672 -0.550589 -0.557127
RightFoot  -4.14725 -0.862335 13.2117
RightToes  -2.08645e-008 3.77894e-005 6.81332e-007
Spine  9.03925 3.20962 2.99673
Spine1  1.32765 4.10993 -2.13042
HEad  -34.8431 -10.0817 10.9592
LeftShoulder1  6.84457 -12.8641 -35.7795
LeftArm  6.33232 25.6064 -33.2094
LeftForeArm  155.519 -72.696 -146.891
LeftHand  -0.306251 -2.69956 4.61708
RightShoulder  4.3964 7.17751 35.2538
RightArm  14.7097 -4.79574 29.0105
RightForeArm  103.777 80.5618 89.5296
RightHand  -0.211135 7.42795 -2.27223
LeftUpLeg  -11.5025 -8.61802 4.23212
LeftLeg  29.929 -8.20794 -4.73657
LeftFoot  -8.35271 0.0326211 0.672337
LeftToes  1.24767e-006 1.47042e-008 1.32732e-009
43
root  2.5077 38.682 39.7142 -1.95602 23.5716 -5.24475
RightUpLeg  -33.4498 -15.6981 -2.52243
RightLeg  28.2659 -5.81561 -3.61027
RightFoot  -5.82302 -0.545958 10.4454
RightToes  -2.08645e-008 3.77894e-005 6.81332e-007
Spine  7.01995 2.22244 -0.422318
Spine1  3.97439 2.82 -1.5457
HEad  -37.0833 -7.93208 11.4528
LeftShoulder1  7.44636 -13.3474 -38.0785
LeftArm  7.16815 17.0839 -28.7891
LeftForeArm  158.141 -72.9389 -146.816
LeftHand  -0.581598 -2.26747 9.03097
RightShoulder  4.4455 7.19618 35.6342
RightArm  13.8897 -4.63049 32.1299
RightForeArm  125.614 80.3738 106.858
RightHand  -0.327419 8.16484 -3.16825
LeftUpLeg  -13.9575 -4.6249 -1.34968
LeftLeg  31.2056 -6.63154 -3.94858
LeftFoot  -11.929 0.0953384 6.353
LeftToes  1.24767e-006 1.47042e-008 1.32732e-009
44
root  2.75463 38.2777 38.98 -1.21416 21.6665 -3.64003
RightUpLeg  -28.4126 -14.4884 -3.86559
RightLeg  27.8856 -12.0137 -7.02064
RightFoot  -7.29165 -0.30183 7.11758
RightToes  -2.08645e-008 3.77894e-005 6.81332e-007
Spine  4.82484 1.5751 -1.21664
Spine1  7.00633 1.84716 -0.498588
HEad  -37.5903 -6.39217 12.0059
LeftShoulder1  7.78851 -13.6659 -39.2044
LeftArm  7.41155 10.7422 -26.4153
LeftForeArm  154.134 -74.5158 -142.699
LeftHand  -0.692842 -1.60424 11.6699
RightShoulder  4.47504 7.18644 35.9424
RightArm  12.7898 -8.60999 33.6286
RightForeArm  139.731 79.591 118.919
RightHand  -0.478242 8.94726 -4.25664
LeftUpLeg  -15.645 -4.47447 -4.40228
LeftLeg  32.1618 -2.41223 -1.28065
LeftFoot  -11.879 0.106765 8.56015
LeftToes  1.24767e-006 1.47042e-008 1.32732e-009
45
root  3.04194 38.7889 38.4453 -0.738113 16.2571 -3.64359
RightUpLeg  -22.4974 -12.1469 -2.50047
RightLeg  25.7683 -14.3679 -7.63487
RightFoot  -7.49113 -0.261136 6.29902
RightToes  -2.08645e-008 3.77894e-005 6.81332e-007
Spine  2.23332 1.7688 -0.516561
Spine1  8.00459 1.68912 0.762176
HEad  -34.4945 -3.6242 11.0693
LeftShoulder1  7.47557 -13.3756 -38.1704
LeftArm  7.41188 12.3382 -27.7559
LeftForeArm  150.765 -73.92 -143.54
LeftHand  -0.609487 -1.44781 10.5034
RightShoulder  4.4558 7.15432 35.8896
RightArm  15.3734 -14.5802 32.1166
RightForeArm  143.938 78.3686 127.228
RightHand  -0.289939 9.2877 -2.67561
LeftUpLeg  -14.9014 -3.03246 -4.24463
LeftLeg  28.7359 -1.32266 -0.434458
LeftFoot  -8.76663 -0.0880787 6.07783
LeftToes  1.24767e-006 1.47042e-008 1.32732e-009
46
root  3.27836 39.9675 37.9486 0.976303 9.49931 -3.34299
RightUpLeg  -17.2542 -12.8411 -1.13259
RightLeg  22.504 -11.2338 -5.2766
RightFoot  -5.73232 -0.426488 7.89595
RightToes  -2.08645e-008 3.77894e-005 6.81332e-007
Spine  -0.688813 1.70785 -0.148251
Spine1  7.15868 1.32957 1.70185
HEad  -29.6946 0.497491 8.7114
LeftShoulder1  7.02951 -12.8854 -36.8265
LeftArm  7.37923 19.4598 -29.3927
LeftForeArm  154.688 -70.7914 -150.115
LeftHand  -0.54656 -1.82765 8.97498
RightShoulder  4.34045 7.07602 35.1224
RightArm  20.7628 -19.0632 29.6445
RightForeArm  141.723 78.0214 128.276
RightHand  -0.693071 8.46323 -6.17032
LeftUpLeg  -12.6375 1.47072 -3.90434
LeftLeg  18.8691 -1.72079 -0.376351
LeftFoot  -1.22749 -0.221682 2.58823
LeftToes  1.24767e-006 1.47042e-008 1.32732e-009
47
root  3.41667 41.1076 37.3585 3.37852 3.32298 -4.01062
RightUpLeg  -13.6249 -15.4232 0.217642
RightLeg  21.802 -7.35664 -3.42936
RightFoot  -2.84893 -0.656862 8.59898
RightToes  -2.08645e-008 3.77894e-005 6.81332e-007
Spine  -4.02619 1.61174 2.11443
Spine1  6.6613 0.998673 1.96849
HEad  -26.1549 4.15129 6.59088
LeftShoulder1  6.91034 -12.7764 -36.3945
LeftArm  7.60152 25.4405 -29.0416
LeftForeArm  160.131 -67.7341 -155.026
LeftHand  -0.434414 -2.21116 6.82804
RightShoulder  4.20022 6.98581 34.1506
RightArm  24.3321 -22.2586 27.2316
RightForeArm  143.141 77.6524 130.269
RightHand  -0.0179817 9.46617 -0.539509
LeftUpLeg  -10.4618 0.516589 -1.11294
LeftLeg  7.74494 1.41581 -1.3253
LeftFoot  5.14944 0.602429 -4.43703
LeftToes  1.24767e-006 1.47042e-008 1.32732e-009
48
root  3.46759 41.7185 36.6882 5.30696 -3.40182 -5.3589
RightUpLeg  -11.0658 -16.1917 0.828502
RightLeg  25.3005 -7.31949 -3.98686
RightFoot  0.642043 -0.846474 8.08862
RightToes  -2.08645e-008 3.77894e-005 6.81332e-007
Spine  -6.91743 2.35418 6.19684
Spine1  7.57737 1.73734 0.601894
HEad  -24.5592 6.95908 5.65306
LeftShoulder1  6.95089 -12.9275 -36.2555
LeftArm  7.78396 27.8665 -27.4844
LeftForeArm  162.16 -65.5985 -157.546
LeftHand  -0.252803 -2.48657 3.93787
RightShoulder  4.19052 7.00527 33.985
RightArm  25.0306 -23.9881 24.5872
RightForeArm  145.767 76.4742 135.358
RightHand  0.000664537 8.88506 -0.386025
LeftUpLeg  -9.55742 0.853946 1.82539
LeftLeg  5.52587 -2.16842 -1.36204
LeftFoot  5.11761 1.55573 -11.0819
LeftToes  1.24767e-006 1.47042e-008 1.32732e-009
